<?xml version="1.0" encoding="utf-8"?><svg xmlns="http://www.w3.org/2000/svg" xmlns:xlink="http://www.w3.org/1999/xlink"><symbol viewBox="0 0 482.9 482.9" id="avatar"><path d="M239.7 260.2h3.2c29.3-.5 53-10.8 70.5-30.5 38.5-43.4 32.1-117.8 31.4-124.9-2.5-53.3-27.7-78.8-48.5-90.7C280.8 5.2 262.7.4 242.5 0h-1.7c-11.1 0-32.9 1.8-53.8 13.7-21 11.9-46.6 37.4-49.1 91.1-.7 7.1-7.1 81.5 31.4 124.9 17.4 19.7 41.1 30 70.4 30.5zm-75.1-152.9c0-.3.1-.6.1-.8 3.3-71.7 54.2-79.4 76-79.4h1.2c27 .6 72.9 11.6 76 79.4 0 .3 0 .6.1.8.1.7 7.1 68.7-24.7 104.5-12.6 14.2-29.4 21.2-51.5 21.4h-1c-22-.2-38.9-7.2-51.4-21.4-31.7-35.6-24.9-103.9-24.8-104.5z"/><path d="M446.8 383.6v-.3c0-.8-.1-1.6-.1-2.5-.6-19.8-1.9-66.1-45.3-80.9-.3-.1-.7-.2-1-.3-45.1-11.5-82.6-37.5-83-37.8-6.1-4.3-14.5-2.8-18.8 3.3-4.3 6.1-2.8 14.5 3.3 18.8 1.7 1.2 41.5 28.9 91.3 41.7 23.3 8.3 25.9 33.2 26.6 56 0 .9 0 1.7.1 2.5.1 9-.5 22.9-2.1 30.9-16.2 9.2-79.7 41-176.3 41-96.2 0-160.1-31.9-176.4-41.1-1.6-8-2.3-21.9-2.1-30.9 0-.8.1-1.6.1-2.5.7-22.8 3.3-47.7 26.6-56 49.8-12.8 89.6-40.6 91.3-41.7 6.1-4.3 7.6-12.7 3.3-18.8-4.3-6.1-12.7-7.6-18.8-3.3-.4.3-37.7 26.3-83 37.8-.4.1-.7.2-1 .3-43.4 14.9-44.7 61.2-45.3 80.9 0 .9 0 1.7-.1 2.5v.3c-.1 5.2-.2 31.9 5.1 45.3 1 2.6 2.8 4.8 5.2 6.3 3 2 74.9 47.8 195.2 47.8s192.2-45.9 195.2-47.8c2.3-1.5 4.2-3.7 5.2-6.3 5-13.3 4.9-40 4.8-45.2z"/></symbol><symbol viewBox="0 0 472.6 472.6" id="avatar-1"><path d="M417.3 453.2c-22-45.7-61.6-81.6-109.6-99.7v-28.9c23.6-1.3 68.1-7.3 94.2-34 3.3-3.4 4.6-8.3 3.4-12.9s-4.8-8.2-9.4-9.5c-.4-.1-34.8-11.9-27.9-82.3 3-30 2.5-57-1.4-80.2-4.5-26.6-13.5-47.5-26.6-62.1-14.2-15.7-32.7-23.7-55-23.7h-2.6C273.9 12.5 255.3 0 226.8 0c-13.3 0-27.2 2.7-41.4 8.2l-.6.2c-11.2 4.2-32 12.1-49.6 35.5-20.5 27.2-30.3 67.5-29.1 119.7 1.2 52.3-7.4 77.9-14.8 90.2-6.1 10.1-11.9 12.1-13.4 12.5-5.1-.4-9.2 2.2-11.8 6.6-2.7 4.5-1.7 10.2 1.3 14.6 1.2 1.8 8.2 11.2 25.1 20.3 19.3 10.4 43.4 16.3 71.9 17.5v27.5C117 370.8 77.6 407 55.3 453.3c-2 4.2-1.7 9.1.7 13 2.5 3.9 6.8 6.3 11.4 6.3h337.8c4.6 0 9-2.4 11.4-6.3 2.4-4 2.7-8.9.7-13.1zm-326.9-7.7c21.6-33.2 54-58.3 91.5-70.4 5.6-1.8 9.4-7 9.4-12.8V312c0-3.6-1.4-7.1-4-9.6s-6-4-9.6-3.9c-38.9.4-62.4-8.5-75.2-16.1.9-.9 1.9-1.8 2.9-2.8 19.7-20.5 29-59.7 27.7-116.6-2.6-105.1 42.1-122.1 61.1-129.3l.6-.2c11.2-4.2 21.9-6.4 31.8-6.4 25.8 0 39 14.2 40.1 15.5 2.8 3.5 7.1 5.2 11.6 4.8 2.2-.2 4.4-.3 6.5-.3 14.5 0 26 4.8 35 14.8 19 21 26.8 65.3 21.2 121.5-5.6 56.7 12.1 85.1 27.4 98.9-20.6 11.4-49.9 15.7-72 15.7h-2c-3.6-.1-7.2 1.3-9.8 3.8-2.6 2.5-4.1 6-4.1 9.7v51.7c0 5.9 3.8 11 9.4 12.8 38 12.3 70.5 37.1 92 69.7H90.4v-.2z"/></symbol><symbol viewBox="0 0 477.175 477.175" id="back"><path d="M145.188 238.575l215.5-215.5c5.3-5.3 5.3-13.8 0-19.1s-13.8-5.3-19.1 0l-225.1 225.1c-5.3 5.3-5.3 13.8 0 19.1l225.1 225c2.6 2.6 6.1 4 9.5 4s6.9-1.3 9.5-4c5.3-5.3 5.3-13.8 0-19.1l-215.4-215.5z"/></symbol><symbol viewBox="0 0 485.5 485.5" id="book"><path d="M422.1 126.2H126.4c-27.4 0-49.8-22.3-49.8-49.8 0-27.4 22.3-49.8 49.8-49.8h295.8c7.4 0 13.3-6 13.3-13.3 0-7.4-6-13.3-13.3-13.3H126.4C84.3 0 50 34.3 50 76.4v332.7c0 42.1 34.3 76.4 76.4 76.4h295.8c7.4 0 13.3-6 13.3-13.3V139.5c-.1-7.3-6-13.3-13.4-13.3zm-13.3 332.7H126.4c-27.4 0-49.8-22.3-49.8-49.8V134.4c13.4 11.5 30.8 18.5 49.8 18.5h282.4v306z"/><path d="M130.6 64.3c-7.4 0-13.3 6-13.3 13.3s6 13.3 13.3 13.3h249.8c7.4 0 13.3-6 13.3-13.3s-6-13.3-13.3-13.3H130.6zm46.8 336.4c1.5.5 3 .8 4.5.8 5.5 0 10.6-3.4 12.5-8.8l16.2-45.3H273c.5 0 1.1 0 1.6-.1l16.2 45.4c1.9 5.4 7.1 8.8 12.5 8.8 1.5 0 3-.3 4.5-.8 6.9-2.5 10.5-10.1 8-17l-60.6-169.9c-.1-.4-.3-.8-.5-1.2l-.3-.6-.3-.6c-.1-.2-.3-.4-.4-.7-.1-.1-.2-.3-.3-.4-.1-.2-.3-.4-.5-.6-.1-.1-.2-.3-.4-.4-.1-.2-.3-.3-.5-.5l-.5-.5c-.1-.1-.3-.2-.4-.4-.2-.2-.4-.3-.6-.5-.1-.1-.3-.2-.4-.3-.2-.1-.4-.3-.6-.4l-.6-.3-.6-.3c-.4-.2-.8-.4-1.2-.5h-.1l-1.2-.3c-.2 0-.3-.1-.5-.1-.3-.1-.5-.1-.8-.2-.2 0-.4 0-.6-.1-.2 0-.5-.1-.7-.1h-1.3c-.2 0-.5 0-.7.1-.2 0-.4 0-.6.1-.3 0-.5.1-.8.2-.2 0-.3.1-.5.1-.4.1-.8.2-1.1.3h-.1c-.4.1-.8.3-1.2.5l-.6.3-.6.3c-.2.1-.4.3-.7.4-.1.1-.3.2-.4.3-.2.2-.4.3-.6.5-.1.1-.3.2-.4.4l-.5.5-.5.5c-.1.1-.2.3-.4.4-.2.2-.3.4-.5.6-.1.1-.2.3-.3.4-.1.2-.3.4-.4.6l-.3.6-.3.6c-.2.4-.4.8-.5 1.2l-60.8 169.9c-2.2 7 1.4 14.6 8.3 17.1zm65.3-142.9l22.5 63h-45.1l22.6-63z"/></symbol><symbol viewBox="0 0 475.2 475.2" id="cancel"><path d="M405.6 69.6C360.7 24.7 301.1 0 237.6 0s-123.1 24.7-168 69.6S0 174.1 0 237.6s24.7 123.1 69.6 168 104.5 69.6 168 69.6 123.1-24.7 168-69.6 69.6-104.5 69.6-168-24.7-123.1-69.6-168zm-19.1 316.9c-39.8 39.8-92.7 61.7-148.9 61.7s-109.1-21.9-148.9-61.7c-82.1-82.1-82.1-215.7 0-297.8C128.5 48.9 181.4 27 237.6 27s109.1 21.9 148.9 61.7c82.1 82.1 82.1 215.7 0 297.8z"/><path d="M342.3 132.9c-5.3-5.3-13.8-5.3-19.1 0l-85.6 85.6-85.6-85.6c-5.3-5.3-13.8-5.3-19.1 0-5.3 5.3-5.3 13.8 0 19.1l85.6 85.6-85.6 85.6c-5.3 5.3-5.3 13.8 0 19.1 2.6 2.6 6.1 4 9.5 4s6.9-1.3 9.5-4l85.6-85.6 85.6 85.6c2.6 2.6 6.1 4 9.5 4 3.5 0 6.9-1.3 9.5-4 5.3-5.3 5.3-13.8 0-19.1l-85.4-85.6 85.6-85.6c5.3-5.3 5.3-13.8 0-19.1z"/></symbol><symbol viewBox="0 0 477.5 477.5" id="chat"><path d="M407.533 70c-45.1-45.1-105-70-168.8-70s-123.7 24.8-168.8 69.9c-87 87-93.3 226-15.8 320.2-10.7 21.9-23.4 36.5-37.6 43.5-8.7 4.3-13.6 13.7-12.2 23.3 1.5 9.7 8.9 17.2 18.6 18.7 5.3.8 11 1.3 16.9 1.3 29.3 0 60.1-10.1 85.8-27.8 34.6 18.6 73.5 28.4 113.1 28.4 63.8 0 123.7-24.8 168.8-69.9s69.9-105.1 69.9-168.8-24.8-123.7-69.9-168.8zm-19.1 318.5c-40 40-93.2 62-149.7 62-37.8 0-74.9-10.1-107.2-29.1-2.1-1.2-4.5-1.9-6.8-1.9-2.9 0-5.9 1-8.3 2.8-30.6 23.7-61.4 27.2-74.9 27.5 16.1-12 29.6-30.6 40.9-56.5 2.1-4.8 1.2-10.4-2.3-14.4-74-83.6-70.1-211 8.9-290 40-40 93.2-62 149.7-62 56.6 0 109.7 22 149.7 62 82.6 82.7 82.6 217.1 0 299.6z"/><path d="M299.333 129.4c-21.6 0-41.9 8.4-57.2 23.7l-3.4 3.4-3.4-3.4c-15.3-15.3-35.6-23.7-57.2-23.7-21.5 0-41.8 8.4-57 23.6-15.3 15.3-23.7 35.6-23.6 57.1 0 21.6 8.5 41.8 23.7 57.1l107.9 107.9c2.6 2.6 6.1 4 9.5 4s6.9-1.3 9.5-3.9l108.2-107.8c15.3-15.3 23.7-35.6 23.7-57.1 0-21.6-8.4-41.9-23.6-57.2-15.3-15.3-35.6-23.7-57.1-23.7zm37.9 118.9l-98.6 98.2-98.4-98.4c-10.2-10.2-15.8-23.7-15.8-38.1 0-14.4 5.6-27.9 15.7-38 10.1-10.1 23.6-15.7 38-15.7s27.9 5.6 38.1 15.8l13 13c5.3 5.3 13.8 5.3 19.1 0l12.9-12.9c10.2-10.2 23.7-15.8 38.1-15.8 14.3 0 27.8 5.6 38 15.8s15.8 23.7 15.7 38c0 14.4-5.6 27.9-15.8 38.1z"/></symbol><symbol viewBox="0 0 477.6 477.6" id="chat-1"><path d="M407.583 70c-45.1-45.1-105-70-168.8-70s-123.7 24.9-168.8 70c-87 87-93.3 226-15.8 320.2-10.7 21.9-23.3 36.5-37.6 43.5-8.7 4.3-13.6 13.7-12.2 23.3 1.5 9.7 8.9 17.2 18.6 18.7 5.3.8 11 1.3 16.9 1.3 29.3 0 60.1-10.1 85.8-27.8 34.6 18.6 73.5 28.4 113.1 28.4 63.8 0 123.7-24.8 168.8-69.9s69.9-105.1 69.9-168.8-24.8-123.8-69.9-168.9zm-19.1 318.5c-40 40-93.2 62-149.7 62-37.8 0-74.9-10.1-107.2-29.1-2.1-1.2-4.5-1.9-6.8-1.9-2.9 0-5.9 1-8.3 2.8-30.6 23.7-61.4 27.2-74.9 27.5 16.1-12 29.6-30.6 40.9-56.5 2.1-4.8 1.2-10.4-2.3-14.4-74-83.6-70.1-211 8.9-290 40-40 93.2-62 149.7-62s109.7 22 149.7 62c82.6 82.7 82.6 217.1 0 299.6z"/><path d="M338.783 160h-200c-7.5 0-13.5 6-13.5 13.5s6 13.5 13.5 13.5h200c7.5 0 13.5-6 13.5-13.5s-6.1-13.5-13.5-13.5zm0 65.3h-200c-7.5 0-13.5 6-13.5 13.5s6 13.5 13.5 13.5h200c7.5 0 13.5-6 13.5-13.5s-6.1-13.5-13.5-13.5zm0 65.3h-200c-7.5 0-13.5 6-13.5 13.5s6 13.5 13.5 13.5h200c7.5 0 13.5-6 13.5-13.5s-6.1-13.5-13.5-13.5z"/></symbol><symbol viewBox="0 0 473 473" id="chat-2"><path d="M403.581 69.3c-44.7-44.7-104-69.3-167.2-69.3s-122.5 24.6-167.2 69.3c-86.4 86.4-92.4 224.7-14.9 318-7.6 15.3-19.8 33.1-37.9 42-8.7 4.3-13.6 13.6-12.1 23.2s8.9 17.1 18.5 18.6c4.5.7 10.9 1.4 18.7 1.4 20.9 0 51.7-4.9 83.2-27.6 35.1 18.9 73.5 28.1 111.6 28.1 61.2 0 121.8-23.7 167.4-69.3 44.7-44.7 69.3-104 69.3-167.2s-24.7-122.5-69.4-167.2zm-19.1 315.3c-67.5 67.5-172 80.9-254.2 32.6-5.4-3.2-12.1-2.2-16.4 2.1-.4.2-.8.5-1.1.8-27.1 21-53.7 25.4-71.3 25.4h-.1c20.3-14.8 33.1-36.8 40.6-53.9 1.2-2.9 1.4-5.9.7-8.7-.3-2.7-1.4-5.4-3.3-7.6-73.2-82.7-69.4-208.7 8.8-286.9 81.7-81.7 214.6-81.7 296.2 0 81.8 81.7 81.8 214.5.1 296.2z"/><circle cx="236.381" cy="236.5" r="16.6"/><circle cx="321.981" cy="236.5" r="16.6"/><circle cx="150.781" cy="236.5" r="16.6"/></symbol></svg>